<svg xmlns="http://www.w3.org/2000/svg" width="2048" height="96" viewBox="0 0 2048 96" fill="none"><defs><pattern id="dn1" width="16" height="16" patternUnits="userSpaceOnUse"><rect x="0" y="5" width="1" height="1" fill="#fff" opacity="0.05"/><rect x="12" y="15" width="1" height="1" fill="#fff" opacity="0.05"/><rect x="10" y="8" width="1" height="1" fill="#fff" opacity="0.06"/><rect x="13" y="1" width="1" height="1" fill="#fff" opacity="0.05"/><rect x="9" y="6" width="1" height="1" fill="#fff" opacity="0.06"/><rect x="1" y="1" width="1" height="1" fill="#fff" opacity="0.06"/><rect x="11" y="13" width="1" height="1" fill="#fff" opacity="0.05"/><rect x="3" y="1" width="1" height="1" fill="#fff" opacity="0.04"/><rect x="9" y="4" width="1" height="1" fill="#fff" opacity="0.04"/><rect x="14" y="4" width="1" height="1" fill="#fff" opacity="0.08"/><rect x="15" y="7" width="1" height="1" fill="#fff" opacity="0.04"/><rect x="4" y="14" width="1" height="1" fill="#fff" opacity="0.07"/><rect x="0" y="4" width="1" height="1" fill="#fff" opacity="0.08"/><rect x="15" y="7" width="1" height="1" fill="#fff" opacity="0.05"/><rect x="3" y="4" width="1" height="1" fill="#fff" opacity="0.07"/><rect x="1" y="6" width="1" height="1" fill="#fff" opacity="0.06"/><rect x="8" y="14" width="1" height="1" fill="#fff" opacity="0.06"/><rect x="3" y="1" width="1" height="1" fill="#fff" opacity="0.06"/><rect x="9" y="12" width="1" height="1" fill="#fff" opacity="0.07"/><rect x="0" y="5" width="1" height="1" fill="#fff" opacity="0.05"/><rect x="2" y="5" width="1" height="1" fill="#fff" opacity="0.07"/><rect x="2" y="9" width="1" height="1" fill="#fff" opacity="0.03"/><rect x="0" y="4" width="1" height="1" fill="#fff" opacity="0.06"/><rect x="13" y="1" width="1" height="1" fill="#fff" opacity="0.06"/><rect x="10" y="6" width="1" height="1" fill="#fff" opacity="0.06"/><rect x="4" y="1" width="1" height="1" fill="#fff" opacity="0.03"/><rect x="13" y="14" width="1" height="1" fill="#fff" opacity="0.05"/><rect x="14" y="2" width="1" height="1" fill="#fff" opacity="0.05"/><rect x="8" y="6" width="1" height="1" fill="#fff" opacity="0.03"/><rect x="0" y="14" width="1" height="1" fill="#fff" opacity="0.08"/><rect x="7" y="8" width="1" height="1" fill="#fff" opacity="0.06"/><rect x="4" y="13" width="1" height="1" fill="#fff" opacity="0.03"/><rect x="9" y="7" width="1" height="1" fill="#fff" opacity="0.06"/><rect x="8" y="12" width="1" height="1" fill="#fff" opacity="0.06"/><rect x="13" y="2" width="1" height="1" fill="#fff" opacity="0.07"/><rect x="13" y="12" width="1" height="1" fill="#fff" opacity="0.06"/><rect x="1" y="13" width="1" height="1" fill="#fff" opacity="0.05"/><rect x="13" y="8" width="1" height="1" fill="#fff" opacity="0.04"/><rect x="3" y="12" width="1" height="1" fill="#fff" opacity="0.08"/><rect x="4" y="15" width="1" height="1" fill="#fff" opacity="0.04"/></pattern></defs><rect width="2048" height="96" fill="#0c0d12"/><rect x="426" y="48" width="6" height="6" fill="#323646" opacity="0.44"/><rect x="432" y="48" width="6" height="6" fill="#1d3a44" opacity="0.79"/><rect x="438" y="48" width="6" height="6" fill="#2a2e3a" opacity="0.47"/><rect x="1770" y="66" width="6" height="6" fill="#2a2e3a" opacity="0.73"/><rect x="1614" y="60" width="6" height="6" fill="#2a2e3a" opacity="0.78"/><rect x="1620" y="60" width="6" height="6" fill="#2a2e3a" opacity="0.49"/><rect x="1626" y="60" width="6" height="6" fill="#323646" opacity="0.63"/><rect x="1524" y="0" width="6" height="6" fill="#3a1f2c" opacity="0.68"/><rect x="1530" y="0" width="6" height="6" fill="#2a2e3a" opacity="0.77"/><rect x="1536" y="0" width="6" height="6" fill="#1d3a44" opacity="0.73"/><rect x="1542" y="0" width="6" height="6" fill="#1d3a44" opacity="0.78"/><rect x="744" y="84" width="6" height="6" fill="#3a1f2c" opacity="0.55"/><rect x="924" y="6" width="6" height="6" fill="#3a1f2c" opacity="0.48"/><rect x="930" y="6" width="6" height="6" fill="#323646" opacity="0.48"/><rect x="936" y="6" width="6" height="6" fill="#323646" opacity="0.58"/><rect x="942" y="6" width="6" height="6" fill="#323646" opacity="0.47"/><rect x="1704" y="6" width="6" height="6" fill="#2a2e3a" opacity="0.47"/><rect x="1710" y="6" width="6" height="6" fill="#323646" opacity="0.44"/><rect x="1158" y="42" width="6" height="6" fill="#3a1f2c" opacity="0.48"/><rect x="1164" y="42" width="6" height="6" fill="#2a2e3a" opacity="0.5"/><rect x="1170" y="42" width="6" height="6" fill="#1d3a44" opacity="0.66"/><rect x="1176" y="42" width="6" height="6" fill="#2a2e3a" opacity="0.44"/><rect x="1974" y="78" width="6" height="6" fill="#3a1f2c" opacity="0.75"/><rect x="804" y="84" width="6" height="6" fill="#1d3a44" opacity="0.41"/><rect x="810" y="84" width="6" height="6" fill="#323646" opacity="0.64"/><rect x="816" y="84" width="6" height="6" fill="#3a1f2c" opacity="0.54"/><rect x="822" y="84" width="6" height="6" fill="#3a1f2c" opacity="0.78"/><rect x="1800" y="60" width="6" height="6" fill="#1d3a44" opacity="0.41"/><rect x="1806" y="60" width="6" height="6" fill="#2a2e3a" opacity="0.76"/><rect x="1812" y="60" width="6" height="6" fill="#1d3a44" opacity="0.49"/><rect x="1818" y="60" width="6" height="6" fill="#323646" opacity="0.4"/><rect x="1806" y="84" width="6" height="6" fill="#1d3a44" opacity="0.45"/><rect x="1812" y="84" width="6" height="6" fill="#3a1f2c" opacity="0.41"/><rect x="396" y="42" width="6" height="6" fill="#323646" opacity="0.77"/><rect x="402" y="42" width="6" height="6" fill="#2a2e3a" opacity="0.53"/><rect x="1404" y="54" width="6" height="6" fill="#1d3a44" opacity="0.48"/><rect x="1410" y="54" width="6" height="6" fill="#323646" opacity="0.69"/><rect x="1674" y="12" width="6" height="6" fill="#3a1f2c" opacity="0.66"/><rect x="1680" y="12" width="6" height="6" fill="#3a1f2c" opacity="0.77"/><rect x="1248" y="18" width="6" height="6" fill="#323646" opacity="0.57"/><rect x="1254" y="18" width="6" height="6" fill="#2a2e3a" opacity="0.73"/><rect x="1260" y="18" width="6" height="6" fill="#323646" opacity="0.6"/><rect x="348" y="0" width="6" height="6" fill="#1d3a44" opacity="0.54"/><rect x="354" y="0" width="6" height="6" fill="#2a2e3a" opacity="0.62"/><rect x="360" y="0" width="6" height="6" fill="#323646" opacity="0.53"/><rect x="198" y="36" width="6" height="6" fill="#2a2e3a" opacity="0.62"/><rect x="204" y="36" width="6" height="6" fill="#2a2e3a" opacity="0.65"/><rect x="210" y="36" width="6" height="6" fill="#1d3a44" opacity="0.61"/><rect x="144" y="72" width="6" height="6" fill="#323646" opacity="0.79"/><rect x="150" y="72" width="6" height="6" fill="#2a2e3a" opacity="0.41"/><rect x="156" y="72" width="6" height="6" fill="#323646" opacity="0.46"/><rect x="162" y="72" width="6" height="6" fill="#323646" opacity="0.63"/><rect x="666" y="66" width="6" height="6" fill="#1d3a44" opacity="0.5"/><rect x="1074" y="6" width="6" height="6" fill="#2a2e3a" opacity="0.64"/><rect x="1290" y="60" width="6" height="6" fill="#2a2e3a" opacity="0.53"/><rect x="1296" y="60" width="6" height="6" fill="#1d3a44" opacity="0.55"/><rect x="1302" y="60" width="6" height="6" fill="#3a1f2c" opacity="0.57"/><rect x="1308" y="60" width="6" height="6" fill="#2a2e3a" opacity="0.66"/><rect x="480" y="60" width="6" height="6" fill="#2a2e3a" opacity="0.78"/><rect x="486" y="60" width="6" height="6" fill="#323646" opacity="0.79"/><rect x="1248" y="6" width="6" height="6" fill="#3a1f2c" opacity="0.61"/><rect x="1254" y="6" width="6" height="6" fill="#1d3a44" opacity="0.59"/><rect x="1260" y="6" width="6" height="6" fill="#2a2e3a" opacity="0.46"/><rect x="258" y="18" width="6" height="6" fill="#1d3a44" opacity="0.56"/><rect x="264" y="18" width="6" height="6" fill="#323646" opacity="0.45"/><rect x="528" y="12" width="6" height="6" fill="#1d3a44" opacity="0.64"/><rect x="534" y="12" width="6" height="6" fill="#323646" opacity="0.72"/><rect x="2046" y="24" width="6" height="6" fill="#2a2e3a" opacity="0.75"/><rect x="2052" y="24" width="6" height="6" fill="#323646" opacity="0.71"/><rect x="2058" y="24" width="6" height="6" fill="#323646" opacity="0.59"/><rect x="510" y="0" width="6" height="6" fill="#1d3a44" opacity="0.7"/><rect x="516" y="0" width="6" height="6" fill="#1d3a44" opacity="0.61"/><rect x="1950" y="36" width="6" height="6" fill="#3a1f2c" opacity="0.51"/><rect x="1956" y="36" width="6" height="6" fill="#323646" opacity="0.77"/><rect x="1962" y="36" width="6" height="6" fill="#1d3a44" opacity="0.77"/><rect x="1968" y="36" width="6" height="6" fill="#1d3a44" opacity="0.66"/><rect x="1218" y="12" width="6" height="6" fill="#2a2e3a" opacity="0.54"/><rect x="1224" y="12" width="6" height="6" fill="#2a2e3a" opacity="0.7"/><rect x="1230" y="12" width="6" height="6" fill="#1d3a44" opacity="0.55"/><rect x="126" y="60" width="6" height="6" fill="#323646" opacity="0.67"/><rect x="132" y="60" width="6" height="6" fill="#2a2e3a" opacity="0.47"/><rect x="948" y="66" width="6" height="6" fill="#3a1f2c" opacity="0.76"/><rect x="954" y="66" width="6" height="6" fill="#323646" opacity="0.55"/><rect x="1716" y="18" width="6" height="6" fill="#1d3a44" opacity="0.5"/><rect x="1722" y="18" width="6" height="6" fill="#2a2e3a" opacity="0.76"/><rect x="804" y="42" width="6" height="6" fill="#1d3a44" opacity="0.68"/><rect x="600" y="18" width="6" height="6" fill="#3a1f2c" opacity="0.78"/><rect x="606" y="18" width="6" height="6" fill="#3a1f2c" opacity="0.47"/><rect x="612" y="18" width="6" height="6" fill="#1d3a44" opacity="0.62"/><rect x="1758" y="42" width="6" height="6" fill="#1d3a44" opacity="0.67"/><rect x="1764" y="42" width="6" height="6" fill="#1d3a44" opacity="0.68"/><rect x="1884" y="48" width="6" height="6" fill="#2a2e3a" opacity="0.67"/><rect x="1890" y="48" width="6" height="6" fill="#323646" opacity="0.58"/><rect x="1896" y="48" width="6" height="6" fill="#1d3a44" opacity="0.61"/><rect x="258" y="30" width="6" height="6" fill="#1d3a44" opacity="0.43"/><rect x="264" y="30" width="6" height="6" fill="#323646" opacity="0.54"/><rect x="270" y="30" width="6" height="6" fill="#3a1f2c" opacity="0.51"/><rect x="276" y="30" width="6" height="6" fill="#2a2e3a" opacity="0.7"/><rect x="978" y="30" width="6" height="6" fill="#2a2e3a" opacity="0.76"/><rect x="984" y="30" width="6" height="6" fill="#1d3a44" opacity="0.65"/><rect x="1896" y="36" width="6" height="6" fill="#2a2e3a" opacity="0.53"/><rect x="1902" y="36" width="6" height="6" fill="#1d3a44" opacity="0.77"/><rect x="1908" y="36" width="6" height="6" fill="#323646" opacity="0.77"/><rect x="972" y="78" width="6" height="6" fill="#1d3a44" opacity="0.74"/><rect x="216" y="42" width="6" height="6" fill="#323646" opacity="0.43"/><rect x="222" y="42" width="6" height="6" fill="#2a2e3a" opacity="0.74"/><rect x="228" y="42" width="6" height="6" fill="#3a1f2c" opacity="0.55"/><rect x="234" y="42" width="6" height="6" fill="#1d3a44" opacity="0.67"/><rect x="540" y="66" width="6" height="6" fill="#2a2e3a" opacity="0.46"/><rect x="546" y="66" width="6" height="6" fill="#1d3a44" opacity="0.56"/><rect x="1806" y="24" width="6" height="6" fill="#2a2e3a" opacity="0.73"/><rect x="1140" y="72" width="6" height="6" fill="#1d3a44" opacity="0.42"/><rect x="1146" y="72" width="6" height="6" fill="#1d3a44" opacity="0.75"/><rect x="1152" y="72" width="6" height="6" fill="#323646" opacity="0.54"/><rect x="1158" y="72" width="6" height="6" fill="#2a2e3a" opacity="0.63"/><rect x="120" y="60" width="6" height="6" fill="#1d3a44" opacity="0.77"/><rect x="936" y="48" width="6" height="6" fill="#323646" opacity="0.56"/><rect x="942" y="48" width="6" height="6" fill="#2a2e3a" opacity="0.61"/><rect x="948" y="48" width="6" height="6" fill="#323646" opacity="0.68"/><rect x="954" y="48" width="6" height="6" fill="#2a2e3a" opacity="0.72"/><rect x="930" y="12" width="6" height="6" fill="#3a1f2c" opacity="0.44"/><rect x="936" y="12" width="6" height="6" fill="#1d3a44" opacity="0.65"/><rect x="942" y="12" width="6" height="6" fill="#323646" opacity="0.47"/><rect x="948" y="12" width="6" height="6" fill="#3a1f2c" opacity="0.41"/><rect x="756" y="72" width="6" height="6" fill="#1d3a44" opacity="0.76"/><rect x="762" y="72" width="6" height="6" fill="#1d3a44" opacity="0.48"/><rect x="768" y="72" width="6" height="6" fill="#2a2e3a" opacity="0.59"/><rect x="774" y="72" width="6" height="6" fill="#1d3a44" opacity="0.74"/><rect x="24" y="18" width="6" height="6" fill="#3a1f2c" opacity="0.57"/><rect x="30" y="18" width="6" height="6" fill="#1d3a44" opacity="0.51"/><rect x="36" y="18" width="6" height="6" fill="#323646" opacity="0.64"/><rect x="798" y="54" width="6" height="6" fill="#323646" opacity="0.44"/><rect x="558" y="24" width="6" height="6" fill="#3a1f2c" opacity="0.49"/><rect x="564" y="24" width="6" height="6" fill="#323646" opacity="0.52"/><rect x="570" y="24" width="6" height="6" fill="#3a1f2c" opacity="0.6"/><rect width="2048" height="96" fill="url(#dn1)"/><rect x="973.69" y="5.55" width="211.99" height="2.44" fill="#ff2e63" opacity="0.14"/><rect x="501.97" y="56.42" width="53.15" height="3.73" fill="#ff2e63" opacity="0.1"/><rect x="505.65" y="57.22" width="37.2" height="2.24" fill="#18e6ff" opacity="0.08"/><rect x="256.11" y="35.7" width="267.52" height="0.75" fill="#ff2e63" opacity="0.19"/><rect x="261.43" y="36.5" width="187.27" height="0.45" fill="#18e6ff" opacity="0.15"/><rect x="1416.26" y="95.79" width="209.12" height="1.54" fill="#18e6ff" opacity="0.14"/><rect x="1419.36" y="96.59" width="146.38" height="0.93" fill="#ff2e63" opacity="0.11"/><rect x="1990.68" y="82.03" width="189.67" height="5.69" fill="#ff2e63" opacity="0.06"/><rect x="1110.01" y="20.89" width="288.77" height="1.82" fill="#ff2e63" opacity="0.18"/><rect x="1011.89" y="28.7" width="171.69" height="1.99" fill="#ff2e63" opacity="0.08"/><rect x="1021.52" y="29.5" width="120.18" height="1.2" fill="#18e6ff" opacity="0.06"/><rect x="587.57" y="61.62" width="242.95" height="2.57" fill="#18e6ff" opacity="0.12"/><rect x="1139.26" y="6.75" width="283.06" height="1.91" fill="#18e6ff" opacity="0.22"/><rect x="1149.77" y="7.55" width="198.14" height="1.15" fill="#ff2e63" opacity="0.17"/><rect x="1082.02" y="23.05" width="77.89" height="0.66" fill="#18e6ff" opacity="0.19"/><rect x="989.41" y="32.38" width="34.41" height="4.49" fill="#18e6ff" opacity="0.2"/><rect x="181.99" y="49.24" width="253.05" height="1.89" fill="#ff2e63" opacity="0.21"/><rect x="1624.94" y="2.85" width="79.13" height="1.25" fill="#18e6ff" opacity="0.07"/><rect x="1521.37" y="5.89" width="133.71" height="2.46" fill="#18e6ff" opacity="0.09"/><rect x="1547.86" y="87.09" width="232.76" height="1.49" fill="#18e6ff" opacity="0.21"/><rect x="1554.95" y="87.89" width="162.93" height="0.89" fill="#ff2e63" opacity="0.17"/><rect x="860.96" y="75.34" width="228.24" height="1.22" fill="#18e6ff" opacity="0.11"/><rect x="871.34" y="76.14" width="159.77" height="0.73" fill="#ff2e63" opacity="0.09"/><rect x="1020.57" y="23.89" width="186.7" height="5.82" fill="#18e6ff" opacity="0.06"/><rect x="1023.7" y="24.69" width="130.69" height="3.49" fill="#ff2e63" opacity="0.05"/><rect x="926.29" y="22.91" width="150.94" height="1.13" fill="#ff2e63" opacity="0.21"/><rect x="2038.09" y="22.93" width="112.39" height="6.65" fill="#ff2e63" opacity="0.09"/><rect x="38.99" y="82.91" width="145.1" height="6.78" fill="#ff2e63" opacity="0.21"/><rect x="1958.13" y="13.99" width="132.38" height="1.23" fill="#18e6ff" opacity="0.08"/><rect x="590.15" y="39.3" width="279.73" height="2.57" fill="#ff2e63" opacity="0.2"/><rect x="1676.14" y="48.49" width="36.59" height="0.84" fill="#ff2e63" opacity="0.09"/><rect x="803.93" y="18.47" width="153.38" height="2.41" fill="#ff2e63" opacity="0.06"/><rect x="1351.59" y="50.84" width="161.7" height="0.93" fill="#ff2e63" opacity="0.07"/><rect x="530.85" y="85.38" width="40.71" height="2.39" fill="#ff2e63" opacity="0.09"/><rect x="537.14" y="86.18" width="28.5" height="1.43" fill="#18e6ff" opacity="0.07"/><rect x="1312.29" y="4.61" width="153.34" height="2.59" fill="#18e6ff" opacity="0.14"/><rect x="3.57" y="73.05" width="124.54" height="1.5" fill="#ff2e63" opacity="0.19"/><rect x="11.3" y="73.85" width="87.18" height="0.9" fill="#18e6ff" opacity="0.16"/><rect x="1783.84" y="39.02" width="209.89" height="2.31" fill="#18e6ff" opacity="0.21"/><rect x="1787.14" y="39.82" width="146.92" height="1.39" fill="#ff2e63" opacity="0.17"/><rect x="928.03" y="35.69" width="256.57" height="2.18" fill="#18e6ff" opacity="0.18"/><rect x="814.44" y="38.3" width="113.62" height="2.34" fill="#ff2e63" opacity="0.13"/><rect x="1455.04" y="26.6" width="32.65" height="2.07" fill="#ff2e63" opacity="0.18"/><rect x="1465.02" y="27.4" width="22.86" height="1.24" fill="#18e6ff" opacity="0.14"/><rect x="1223.42" y="83.98" width="226.14" height="1.4" fill="#ff2e63" opacity="0.18"/><rect x="160.81" y="69.04" width="176.01" height="1.37" fill="#ff2e63" opacity="0.12"/><rect x="1153.71" y="28.23" width="274.85" height="1.18" fill="#18e6ff" opacity="0.07"/><rect x="1163.43" y="29.03" width="192.4" height="0.71" fill="#ff2e63" opacity="0.06"/><rect x="818.32" y="15.58" width="52.38" height="1.87" fill="#18e6ff" opacity="0.09"/><rect x="83.71" y="0.49" width="78.21" height="1.91" fill="#ff2e63" opacity="0.2"/><rect x="1603.07" y="22.9" width="185.73" height="1.27" fill="#ff2e63" opacity="0.15"/><rect x="525.93" y="23.89" width="97.55" height="1.49" fill="#ff2e63" opacity="0.22"/><rect x="531.95" y="24.69" width="68.28" height="0.89" fill="#18e6ff" opacity="0.17"/><rect x="1616.15" y="75.75" width="76.9" height="2.04" fill="#18e6ff" opacity="0.2"/><rect x="902.81" y="27.83" width="34.57" height="2.16" fill="#18e6ff" opacity="0.08"/><rect x="938.65" y="65.36" width="170.66" height="0.82" fill="#18e6ff" opacity="0.19"/><rect x="276.19" y="93.31" width="206.38" height="1.56" fill="#18e6ff" opacity="0.22"/><rect x="280.28" y="94.11" width="144.47" height="0.94" fill="#ff2e63" opacity="0.17"/><rect x="408.98" y="56.34" width="265.71" height="1.23" fill="#ff2e63" opacity="0.19"/><rect x="414.6" y="57.14" width="185.99" height="0.74" fill="#18e6ff" opacity="0.15"/><rect x="574.67" y="68.5" width="207.82" height="1.96" fill="#18e6ff" opacity="0.19"/><rect x="590.23" y="17.83" width="225.24" height="0.85" fill="#ff2e63" opacity="0.14"/><rect x="277.89" y="88.2" width="133.73" height="1.67" fill="#18e6ff" opacity="0.18"/><rect x="1934.15" y="83.38" width="221.35" height="1.87" fill="#ff2e63" opacity="0.2"/><rect x="104.45" y="39.46" width="37.59" height="0.9" fill="#ff2e63" opacity="0.11"/><rect x="41.53" y="40.74" width="180.1" height="5.31" fill="#ff2e63" opacity="0.15"/><rect x="46.35" y="41.54" width="126.07" height="3.19" fill="#18e6ff" opacity="0.12"/><rect x="1761.07" y="57.87" width="134.1" height="6.61" fill="#ff2e63" opacity="0.08"/><rect x="1767.37" y="58.67" width="93.87" height="3.96" fill="#18e6ff" opacity="0.06"/><rect x="416.22" y="14.24" width="38.93" height="1.97" fill="#ff2e63" opacity="0.11"/><rect x="419.45" y="15.04" width="27.25" height="1.18" fill="#18e6ff" opacity="0.09"/><rect x="1324.85" y="33.91" width="203.41" height="2.23" fill="#ff2e63" opacity="0.21"/><rect x="1332.24" y="34.71" width="142.39" height="1.34" fill="#18e6ff" opacity="0.17"/><rect x="350.5" y="91.49" width="191.74" height="1.5" fill="#18e6ff" opacity="0.21"/><rect x="62.08" y="57.99" width="127.68" height="1.63" fill="#ff2e63" opacity="0.21"/><rect x="560.6" y="72.8" width="223.45" height="1.14" fill="#ff2e63" opacity="0.16"/><rect x="504.69" y="20.48" width="220.12" height="1.88" fill="#ff2e63" opacity="0.14"/><rect x="510.12" y="21.28" width="154.08" height="1.13" fill="#18e6ff" opacity="0.11"/><rect x="1788.07" y="46.92" width="127.09" height="2.18" fill="#18e6ff" opacity="0.15"/><rect x="1798.71" y="47.72" width="88.97" height="1.31" fill="#ff2e63" opacity="0.12"/><rect x="910.66" y="76.62" width="123.86" height="0.66" fill="#18e6ff" opacity="0.13"/><rect x="1258.48" y="49.8" width="91.1" height="1.31" fill="#18e6ff" opacity="0.22"/><rect x="1264.64" y="50.6" width="63.77" height="0.79" fill="#ff2e63" opacity="0.18"/><rect x="1419.22" y="92.12" width="76.7" height="4.39" fill="#ff2e63" opacity="0.15"/><rect x="1425.98" y="92.92" width="53.69" height="2.64" fill="#18e6ff" opacity="0.12"/><rect x="1099.04" y="84.1" width="261.72" height="1.99" fill="#ff2e63" opacity="0.1"/><rect x="942.6" y="83.85" width="77.13" height="2.06" fill="#18e6ff" opacity="0.17"/><rect x="601.81" y="81.66" width="88.58" height="6.22" fill="#ff2e63" opacity="0.09"/><rect x="754.11" y="27.13" width="68.23" height="1.76" fill="#18e6ff" opacity="0.09"/><rect x="757.68" y="27.93" width="47.76" height="1.06" fill="#ff2e63" opacity="0.07"/><rect x="623.03" y="38.28" width="269.57" height="2.41" fill="#18e6ff" opacity="0.1"/><rect x="626.72" y="39.08" width="188.7" height="1.44" fill="#ff2e63" opacity="0.08"/><rect x="1314.4" y="50.03" width="34.08" height="0.7" fill="#18e6ff" opacity="0.11"/><rect x="1324.06" y="50.83" width="23.86" height="0.42" fill="#ff2e63" opacity="0.09"/><rect x="1529.67" y="23.27" width="288.63" height="6.26" fill="#18e6ff" opacity="0.17"/><rect x="600.88" y="23.87" width="198.63" height="0.84" fill="#ff2e63" opacity="0.11"/><rect x="605.4" y="24.67" width="139.04" height="0.51" fill="#18e6ff" opacity="0.08"/><rect x="389.06" y="50.06" width="89.07" height="1.49" fill="#18e6ff" opacity="0.16"/><rect x="605.83" y="23.31" width="133.32" height="1.09" fill="#ff2e63" opacity="0.19"/><rect x="1309.44" y="47.41" width="205.41" height="2.35" fill="#ff2e63" opacity="0.14"/><rect x="1318.65" y="48.21" width="143.78" height="1.41" fill="#18e6ff" opacity="0.11"/><rect x="492.91" y="69.89" width="181.47" height="1.43" fill="#18e6ff" opacity="0.14"/><rect x="2038.85" y="8.54" width="131.78" height="2.14" fill="#ff2e63" opacity="0.1"/><rect x="648.17" y="13.11" width="62.14" height="4.57" fill="#ff2e63" opacity="0.21"/><rect x="658.72" y="13.91" width="43.5" height="2.74" fill="#18e6ff" opacity="0.17"/><rect x="1279.6" y="10.97" width="37.19" height="2.5" fill="#18e6ff" opacity="0.14"/><rect x="926.69" y="19.07" width="159.62" height="2.45" fill="#18e6ff" opacity="0.1"/><rect x="1242.22" y="94.25" width="222.79" height="2.08" fill="#18e6ff" opacity="0.2"/><rect x="1710.49" y="62.1" width="136.26" height="0.92" fill="#ff2e63" opacity="0.1"/><rect x="1714.7" y="62.9" width="95.38" height="0.55" fill="#18e6ff" opacity="0.08"/><rect x="157.57" y="51.27" width="69.32" height="4.9" fill="#ff2e63" opacity="0.2"/><rect x="160.67" y="52.07" width="48.52" height="2.94" fill="#18e6ff" opacity="0.16"/><rect x="950.4" y="7.8" width="151.7" height="2.08" fill="#18e6ff" opacity="0.11"/><rect x="955.7" y="8.6" width="106.19" height="1.25" fill="#ff2e63" opacity="0.09"/><rect x="463.21" y="83.92" width="273.71" height="4.17" fill="#18e6ff" opacity="0.16"/><rect x="1269.29" y="72.51" width="61.06" height="3.79" fill="#18e6ff" opacity="0.12"/><rect x="1275.16" y="73.31" width="42.74" height="2.27" fill="#ff2e63" opacity="0.09"/><rect x="811.38" y="61.58" width="207.75" height="2.52" fill="#18e6ff" opacity="0.12"/><rect x="297.31" y="40.73" width="171.04" height="1.43" fill="#18e6ff" opacity="0.09"/><rect x="306.87" y="41.53" width="119.73" height="0.86" fill="#ff2e63" opacity="0.07"/><rect x="673.88" y="53.94" width="275.63" height="1.49" fill="#18e6ff" opacity="0.15"/><rect x="1354.29" y="41.97" width="248.43" height="1.55" fill="#18e6ff" opacity="0.07"/><rect x="1362.14" y="42.77" width="173.9" height="0.93" fill="#ff2e63" opacity="0.06"/><rect x="575.5" y="50.95" width="285.4" height="0.82" fill="#18e6ff" opacity="0.13"/><rect x="1887.44" y="16.89" width="175.92" height="1.6" fill="#18e6ff" opacity="0.16"/><rect x="1896.86" y="17.69" width="123.14" height="0.96" fill="#ff2e63" opacity="0.13"/><rect x="1787.77" y="63.98" width="247.27" height="0.77" fill="#ff2e63" opacity="0.08"/><rect x="1934.61" y="57.03" width="211.22" height="1.95" fill="#ff2e63" opacity="0.21"/><rect x="515.26" y="36.47" width="218.9" height="0.94" fill="#ff2e63" opacity="0.19"/><rect x="538.93" y="94.29" width="260.33" height="0.66" fill="#ff2e63" opacity="0.08"/><rect x="548.76" y="95.09" width="182.23" height="0.39" fill="#18e6ff" opacity="0.07"/><rect x="1761.11" y="73.76" width="222.02" height="2.1" fill="#ff2e63" opacity="0.15"/><rect x="97.35" y="51.84" width="224.14" height="0.35" fill="#eaf6ff" opacity="0.31"/><rect x="1260.91" y="51.16" width="207.3" height="0.35" fill="#eaf6ff" opacity="0.24"/><rect x="1695.43" y="36.19" width="78.21" height="0.35" fill="#eaf6ff" opacity="0.36"/><rect x="75.62" y="43.77" width="94.79" height="0.35" fill="#eaf6ff" opacity="0.31"/><rect x="1852.91" y="88.04" width="141.69" height="0.35" fill="#eaf6ff" opacity="0.37"/><rect x="1129.9" y="86.83" width="59.93" height="0.35" fill="#eaf6ff" opacity="0.39"/><rect x="361.12" y="66.2" width="78.84" height="0.35" fill="#eaf6ff" opacity="0.31"/><rect x="1048.82" y="84.21" width="110.34" height="0.35" fill="#eaf6ff" opacity="0.32"/><rect x="2034.67" y="29.68" width="225.94" height="0.35" fill="#eaf6ff" opacity="0.2"/><rect x="673.26" y="1.81" width="91.07" height="0.35" fill="#eaf6ff" opacity="0.16"/><rect x="379.2" y="78.88" width="144.81" height="0.35" fill="#eaf6ff" opacity="0.25"/><rect x="808.81" y="44.02" width="91.23" height="0.35" fill="#eaf6ff" opacity="0.3"/><rect x="826.73" y="49.22" width="180.15" height="0.35" fill="#eaf6ff" opacity="0.23"/><rect x="1107.47" y="12.13" width="90.82" height="0.35" fill="#eaf6ff" opacity="0.16"/><rect x="777.79" y="74.66" width="159.05" height="0.35" fill="#eaf6ff" opacity="0.29"/><rect x="533.21" y="44.46" width="163.15" height="0.35" fill="#eaf6ff" opacity="0.31"/><rect x="981.39" y="29.68" width="64.51" height="0.35" fill="#eaf6ff" opacity="0.15"/><rect x="1752.72" y="62.77" width="138.21" height="0.35" fill="#eaf6ff" opacity="0.33"/><defs><linearGradient id="scrim2" x1="0" x2="140" y1="0" y2="0" gradientUnits="userSpaceOnUse"><stop stop-color="#000" stop-opacity="0.62"/><stop offset="0.98" stop-color="#000" stop-opacity="0.22"/><stop offset="1" stop-color="#000" stop-opacity="0.18"/></linearGradient></defs><rect width="2048" height="96" fill="url(#scrim2)"/></svg>
